HIERARCHY
ROOT hip
{
  OFFSET 0 0 0
  CHANNELS 6 Xposition Yposition Zposition Zrotation Yrotation Xrotation
  JOINT abdomen
  {
    OFFSET 0 20.6881 -0.73152
    CHANNELS 3 Zrotation Xrotation Yrotation
    JOINT chest
    {
      OFFSET 0 11.7043 -0.48768
      CHANNELS 3 Zrotation Xrotation Yrotation
      JOINT neck
      {
        OFFSET 0 22.1894 -2.19456
        CHANNELS 3 Zrotation Xrotation Yrotation
        JOINT head
        {
          OFFSET -0.24384 7.07133 1.2192
          CHANNELS 3 Zrotation Xrotation Yrotation
          JOINT leftEye
          {
            OFFSET 4.14528 8.04674 8.04672
            CHANNELS 3 Zrotation Xrotation Yrotation
            End Site
            {
              OFFSET 1 0 0
            }
          }
          JOINT rightEye
          {
            OFFSET -3.6576 8.04674 8.04672
            CHANNELS 3 Zrotation Xrotation Yrotation
            End Site
            {
              OFFSET 1 0 0
            }
          }
        }
      }
      JOINT rCollar
      {
        OFFSET -2.68224 19.2634 -4.8768
        CHANNELS 3 Zrotation Xrotation Yrotation
        JOINT rShldr
        {
          OFFSET -8.77824 -1.95073 1.46304
          CHANNELS 3 Zrotation Xrotation Yrotation
          JOINT rForeArm
          {
            OFFSET -28.1742 -1.7115 0.48768
            CHANNELS 3 Zrotation Xrotation Yrotation
            JOINT rHand
            {
              OFFSET -22.5879 0.773209 7.07136
              CHANNELS 3 Zrotation Xrotation Yrotation
              JOINT rThumb1
              {
                OFFSET -1.2192 -0.487915 3.41376
                CHANNELS 3 Zrotation Xrotation Yrotation
                JOINT rThumb2
                {
                  OFFSET -3.37035 -0.52449 3.41376
                  CHANNELS 3 Zrotation Xrotation Yrotation
                  End Site
                  {
                    OFFSET -1.78271 -1.18214 1.43049
                  }
                }
              }
              JOINT rIndex1
              {
                OFFSET -7.75947 0.938293 5.60832
                CHANNELS 3 Zrotation Xrotation Yrotation
                JOINT rIndex2
                {
                  OFFSET -2.54057 -0.884171 1.56538
                  CHANNELS 3 Zrotation Xrotation Yrotation
                  End Site
                  {
                    OFFSET -1.62519 -0.234802 1.16502
                  }
                }
              }
              JOINT rMid1
              {
                OFFSET -8.24714 1.18213 3.41376
                CHANNELS 3 Zrotation Xrotation Yrotation
                JOINT rMid2
                {
                  OFFSET -3.10165 -0.590103 1.0647
                  CHANNELS 3 Zrotation Xrotation Yrotation
                  End Site
                  {
                    OFFSET -2.48547 -0.328903 0.83742
                  }
                }
              }
              JOINT rRing1
              {
                OFFSET -8.82822 0.546677 1.51678
                CHANNELS 3 Zrotation Xrotation Yrotation
                JOINT rRing2
                {
                  OFFSET -2.60934 -0.819778 -0.0198488
                  CHANNELS 3 Zrotation Xrotation Yrotation
                  End Site
                  {
                    OFFSET -2.33842 -0.294052 0.168128
                  }
                }
              }
              JOINT rPinky1
              {
                OFFSET -8.27202 -0.0477905 -0.4584
                CHANNELS 3 Zrotation Xrotation Yrotation
                JOINT rPinky2
                {
                  OFFSET -1.82734 -0.647385 -0.700984
                  CHANNELS 3 Zrotation Xrotation Yrotation
                  End Site
                  {
                    OFFSET -1.69225 -0.51767 -0.607171
                  }
                }
              }
            }
          }
        }
      }
      JOINT lCollar
      {
        OFFSET 2.68224 19.2634 -4.8768
        CHANNELS 3 Zrotation Xrotation Yrotation
        JOINT lShldr
        {
          OFFSET 8.77824 -1.95073 1.46304
          CHANNELS 3 Zrotation Xrotation Yrotation
          JOINT lForeArm
          {
            OFFSET 28.1742 -1.7115 0.48768
            CHANNELS 3 Zrotation Xrotation Yrotation
            JOINT lHand
            {
              OFFSET 22.5879 0.773209 7.07136
              CHANNELS 3 Zrotation Xrotation Yrotation
              JOINT lThumb1
              {
                OFFSET 1.2192 -0.487915 3.41376
                CHANNELS 3 Zrotation Xrotation Yrotation
                JOINT lThumb2
                {
                  OFFSET 3.37035 -0.52449 3.41376
                  CHANNELS 3 Zrotation Xrotation Yrotation
                  End Site
                  {
                    OFFSET 1.78271 -1.18214 1.43049
                  }
                }
              }
              JOINT lIndex1
              {
                OFFSET 7.75947 0.938293 5.60832
                CHANNELS 3 Zrotation Xrotation Yrotation
                JOINT lIndex2
                {
                  OFFSET 2.54057 -0.884171 1.56538
                  CHANNELS 3 Zrotation Xrotation Yrotation
                  End Site
                  {
                    OFFSET 1.62519 -0.234802 1.16502
                  }
                }
              }
              JOINT lMid1
              {
                OFFSET 8.24714 1.18213 3.41376
                CHANNELS 3 Zrotation Xrotation Yrotation
                JOINT lMid2
                {
                  OFFSET 3.10165 -0.590103 1.0647
                  CHANNELS 3 Zrotation Xrotation Yrotation
                  End Site
                  {
                    OFFSET 2.48547 -0.328903 0.83742
                  }
                }
              }
              JOINT lRing1
              {
                OFFSET 8.82822 0.546677 1.51678
                CHANNELS 3 Zrotation Xrotation Yrotation
                JOINT lRing2
                {
                  OFFSET 2.60934 -0.819778 -0.0198488
                  CHANNELS 3 Zrotation Xrotation Yrotation
                  End Site
                  {
                    OFFSET 2.33842 -0.294052 0.168128
                  }
                }
              }
              JOINT lPinky1
              {
                OFFSET 8.27202 -0.0477905 -0.4584
                CHANNELS 3 Zrotation Xrotation Yrotation
                JOINT lPinky2
                {
                  OFFSET 1.82734 -0.647385 -0.700984
                  CHANNELS 3 Zrotation Xrotation Yrotation
                  End Site
                  {
                    OFFSET 1.69225 -0.51767 -0.607171
                  }
                }
              }
            }
          }
        }
      }
    }
  }
  JOINT rButtock
  {
    OFFSET -8.77824 4.35084 1.2192
    CHANNELS 3 Zrotation Xrotation Yrotation
    JOINT rThigh
    {
      OFFSET 0 -1.70687 -2.19456
      CHANNELS 3 Zrotation Xrotation Yrotation
      JOINT rShin
      {
        OFFSET 0 -36.8199 0.73152
        CHANNELS 3 Zrotation Xrotation Yrotation
        JOINT rFoot
        {
          OFFSET 0.73152 -45.1104 -5.12064
          CHANNELS 3 Zrotation Xrotation Yrotation
          End Site
          {
            OFFSET -1.1221 -3.69964 12.103
          }
        }
      }
    }
  }
  JOINT lButtock
  {
    OFFSET 8.77824 4.35084 1.2192
    CHANNELS 3 Zrotation Xrotation Yrotation
    JOINT lThigh
    {
      OFFSET 0 -1.70687 -2.19456
      CHANNELS 3 Zrotation Xrotation Yrotation
      JOINT lShin
      {
        OFFSET 0 -36.8199 0.73152
        CHANNELS 3 Zrotation Xrotation Yrotation
        JOINT lFoot
        {
          OFFSET -0.73152 -45.1104 -5.12064
          CHANNELS 3 Zrotation Xrotation Yrotation
          End Site
          {
            OFFSET 1.1221 -3.69964 12.103
          }
        }
      }
    }
  }
}
MOTION
Frames:	10
Frame Time:	0.00833333
0.0 0.0 0.0 0.0 0.0 0.0 0.0 0.0 0.0 0.0 0.0 0.0 0.0 0.0 0.0 0.0 0.0 0.0 0.0 0.0 0.0 0.0 0.0 0.0 0.0 0.0 0.0 0.0 0.0 0.0 0.0 0.0 0.0 0.0 0.0 0.0 0.0 0.0 0.0 0.0 0.0 0.0 0.0 0.0 0.0 0.0 0.0 0.0 0.0 0.0 0.0 0.0 0.0 0.0 0.0 0.0 0.0 0.0 0.0 0.0 0.0 0.0 0.0 0.0 0.0 0.0 0.0 0.0 0.0 0.0 0.0 0.0 0.0 0.0 0.0 0.0 0.0 0.0 0.0 0.0 0.0 0.0 0.0 0.0 0.0 0.0 0.0 0.0 0.0 0.0 0.0 0.0 0.0 0.0 0.0 0.0 0.0 0.0 0.0 0.0 0.0 0.0 0.0 0.0 0.0 0.0 0.0 0.0 0.0 0.0 0.0 0.0 0.0 0.0 0.0 0.0 0.0 0.0 0.0 0.0 0.0 0.0 0.0 0.0 0.0 0.0 0.0 0.0 0.0 0.0 0.0 0.0
146.174 83.4783 2.59471 0.0 -0.0 -0.0 -0.0 0.0 -0.0 -0.0 0.0 -0.0 -8.133567 10.422116 -81.502261 11.496437 6.51512 81.58876 0.0 -0.0 -0.0 0.0 -0.0 -0.0 -9.651699 34.836178 11.199233 -165.515307 -14.467457 -177.248258 -178.032321 67.103298 -179.140674 -5.162919 16.302679 0.177884 -178.927535 -16.453687 89.421826 -16.258977 -46.394589 -0.973363 -160.015165 -33.011829 122.698522 109.016222 -69.00676 43.857677 -153.32078 13.628946 138.862343 -127.49636 52.357493 119.955382 0.004873 1.771387 0.556475 -157.983917 -76.338562 -170.39337 16.516138 57.859103 12.547749 4.216512 10.534662 0.152078 143.620413 38.233348 -148.080496 -94.002643 -84.675876 -68.341257 8.178887 -11.308713 7.923034 -11.613762 -31.857623 -4.45877 -178.619005 -18.760041 -89.038626 11.117775 -51.829755 1.575523 138.493513 4.896353 -114.8648 -3.189893 30.652827 6.22503 160.937898 -7.488186 -143.367502 -13.034416 -19.82087 1.15838 -0.004873 1.771387 -0.556475 164.376348 -63.814987 178.038636 4.086505 -9.65627 3.821338 3.937282 -10.872197 3.317588 -180.0 75.749642 -0.0 -180.0 73.473292 -180.0 4.801803 -5.525369 128.008574 107.006259 25.0793 -22.391737 -180.0 75.749642 -0.0 -180.0 73.473292 -180.0 7.166984 -6.598021 101.486098 79.217502 69.217804 -6.421861
146.145 83.4681 2.56009 0.0 -0.0 -0.0 -0.0 0.0 -0.0 -0.0 0.0 0.0 10.313685 4.208854 66.928732 -7.925228 7.840827 -66.764752 0.0 -0.0 -0.0 0.0 -0.0 -0.0 -143.620413 38.233348 148.080496 23.435708 -14.454956 6.850967 52.658062 74.953153 -79.241495 -177.502242 20.044057 144.792055 -6.581133 6.344846 1.36571 -0.084027 1.20151 4.288437 73.41997 -73.571281 26.563334 8.370154 10.960843 6.23042 -160.673322 -6.667841 143.245105 -54.098439 62.258506 50.537099 -145.119721 0.310087 -179.225753 21.875527 19.761548 -6.783254 -138.443086 -6.230077 -135.659578 -22.736611 -41.12674 -26.422144 80.1661 68.371792 -83.260848 -16.89865 15.899113 0.048397 7.038645 16.488484 26.147928 -147.662915 -54.955813 -128.083842 176.59845 -14.213085 -89.690967 -179.20599 -17.019217 -97.461332 -73.41997 -73.571281 -26.563334 -12.137246 6.712861 -4.987423 160.937898 -7.488186 -143.367502 170.581987 -35.30603 -143.368571 0.014868 -1.323148 0.415899 1.424199 15.886249 -2.476498 -1.482059 4.003653 -1.360876 77.844851 -54.699521 74.963862 -180.0 75.749642 -0.0 -180.0 73.473292 -180.0 4.128173 -4.565677 138.175617 142.562047 -10.395149 -35.837866 -180.0 75.749642 -0.0 -180.0 73.473292 -180.0 -4.128173 -4.565677 -138.175617 -142.562047 -10.395149 35.837866
146.093 83.4734 2.52342 0.0 -0.0 -0.0 -0.0 0.0 -0.0 -0.0 -0.0 0.0 2.348711 19.742543 -170.817555 5.72704 19.065302 169.446286 0.0 -0.0 -0.0 0.0 -0.0 -0.0 -143.620413 38.233348 148.080496 -153.748773 -14.787283 171.174154 -4.625952 40.004704 4.174796 2.283037 -7.197884 0.390594 51.059793 -41.203951 12.856726 -152.296487 -69.249598 148.117233 10.281995 -18.182542 -4.585706 -71.350735 44.552105 48.538186 -0.057679 0.167876 0.032027 14.003809 -40.499019 -0.405486 -145.099706 -1.521107 -178.650165 21.958267 54.363121 -1.975847 -126.797849 -26.619602 -124.512652 16.854365 41.410104 8.552493 150.168677 21.535282 -155.275413 -23.236335 -10.328838 -10.835384 0.340649 2.958153 32.492589 -163.45687 -33.937277 -140.153659 -83.25393 -50.258079 -33.616048 159.975038 -31.166071 -128.594464 150.885782 -16.291449 -120.978506 79.83091 57.635177 -71.559799 167.375306 -28.008469 -145.269175 11.824771 36.360893 -12.636685 -0.004871 1.772325 -0.55677 157.983295 -76.338503 170.392658 86.000836 -50.498128 84.371009 76.784462 -56.099881 77.613147 -180.0 75.749642 -0.0 -180.0 73.473292 -180.0 4.999056 -5.893439 124.389772 143.927398 -3.035452 -47.226509 -180.0 75.749642 -0.0 -180.0 73.473292 -180.0 7.301688 -7.016974 97.665964 151.546819 6.522669 -93.218688
146.045 83.4765 2.48598 0.0 -0.0 -0.0 -0.0 0.0 -0.0 -0.0 0.0 0.0 10.313685 4.208854 66.928732 -7.925228 7.840827 -66.764752 0.0 -0.0 -0.0 0.0 -0.0 -0.0 -143.620413 38.233348 148.080496 23.435708 -14.454956 6.850967 52.658062 74.953153 -79.241495 -177.502242 20.044057 144.792055 -164.698424 -2.371915 89.58543 36.000724 -62.237278 30.547461 -10.571294 15.013433 6.865128 -161.928811 4.877994 111.287979 -82.840589 61.110826 74.532293 -162.904399 -4.14603 146.187839 -145.121954 1.975391 -179.748922 -141.541184 -27.576599 -174.38624 -132.163084 -18.654983 -129.69238 17.956413 43.539608 8.227561 80.1661 68.371792 -83.260848 -16.89865 15.899113 0.048397 7.038645 16.488484 26.147928 -147.662915 -54.955813 -128.083842 1.193499 1.174314 -0.1953 -0.886694 -0.799861 -0.074596 138.493513 4.896353 -114.8648 145.777277 4.75865 -122.427103 167.375306 -28.008469 -145.269175 2.594169 21.001564 -5.96758 72.350995 72.974965 -90.218005 147.775576 -40.95542 163.264756 -7.928213 24.811638 -7.002569 130.706698 -28.729016 125.781062 -180.0 75.749642 -0.0 -180.0 73.473292 -180.0 4.128173 -4.565677 138.175617 151.776467 -18.40289 -37.197783 -180.0 75.749642 -0.0 -180.0 73.473292 -180.0 -4.128173 -4.565677 -138.175617 -151.776467 -18.40289 37.197783
146.013 83.5141 2.47044 0.0 -0.0 -0.0 -0.0 0.0 -0.0 -0.0 0.0 -0.0 -8.133567 10.422116 -81.502261 11.496437 6.51512 81.58876 0.0 -0.0 -0.0 0.0 -0.0 -0.0 -9.651699 34.836178 11.199233 -165.515307 -14.467457 -177.248258 -178.032321 67.103298 -179.140674 -5.162919 16.302679 0.177884 -178.927535 -16.453687 89.421826 -16.258977 -46.394589 -0.973363 -160.015165 -33.011829 122.698522 109.016222 -69.00676 43.857677 -153.32078 13.628946 138.862343 -127.49636 52.357493 119.955382 0.004873 1.771387 0.556475 -157.983917 -76.338562 -170.39337 16.516138 57.859103 12.547749 4.216512 10.534662 0.152078 143.620413 38.233348 -148.080496 -94.002643 -84.675876 -68.341257 8.178887 -11.308713 7.923034 -11.613762 -31.857623 -4.45877 -178.619005 -18.760041 -89.038626 11.117775 -51.829755 1.575523 138.493513 4.896353 -114.8648 -3.189893 30.652827 6.22503 160.937898 -7.488186 -143.367502 -13.034416 -19.82087 1.15838 -0.004873 1.771387 -0.556475 164.376348 -63.814987 178.038636 4.086505 -9.65627 3.821338 3.937282 -10.872197 3.317588 -180.0 75.749642 -0.0 -180.0 73.473292 -180.0 4.801803 -5.525369 128.008574 -153.434393 -60.326872 -29.091834 -180.0 75.749642 -0.0 -180.0 73.473292 -180.0 7.166984 -6.598021 101.486098 79.217502 69.217804 -6.421861
145.941 83.5725 2.41983 0.0 -0.0 -0.0 -0.0 0.0 -0.0 -0.0 0.0 -0.0 -8.133567 10.422116 -81.502261 11.496437 6.51512 81.58876 0.0 -0.0 -0.0 0.0 -0.0 -0.0 -9.651699 34.836178 11.199233 -165.515307 -14.467457 -177.248258 -178.032321 67.103298 -179.140674 -5.162919 16.302679 0.177884 -5.762555 5.57569 1.158248 -0.214379 1.26625 3.889468 -90.225558 41.072425 75.796697 109.714259 -75.949969 59.647 -160.09819 -4.901163 142.968881 -159.937139 -4.458192 143.106699 -0.021291 -1.725169 -0.542387 -166.907591 -27.371663 174.618639 12.252484 41.424931 10.280249 13.896858 42.050345 5.850134 143.620413 38.233348 -148.080496 -94.002643 -84.675876 -68.341257 8.178887 -11.308713 7.923034 -11.613762 -31.857623 -4.45877 93.743665 37.963835 -53.548561 73.956069 -2.818913 -55.597619 -60.461659 -70.523647 -15.71111 -90.651148 -54.888664 -35.410732 160.889433 -7.337573 -143.345306 10.718066 36.764084 -11.311685 -0.004873 1.771387 -0.556475 3.34078 29.380309 -4.294391 -0.098846 0.258289 -0.091255 140.118061 -14.216142 135.330361 -180.0 75.749642 -0.0 -180.0 73.473292 -180.0 4.801803 -5.525369 128.008574 125.180587 13.427629 -34.834412 -180.0 75.749642 -0.0 -180.0 73.473292 -180.0 7.166984 -6.598021 101.486098 150.894686 -29.037097 -100.386202
145.932 83.5911 2.42235 0.0 -0.0 -0.0 -0.0 0.0 -0.0 -0.0 0.0 -0.0 -8.133567 10.422116 -81.502261 11.496437 6.51512 81.58876 0.0 -0.0 -0.0 0.0 -0.0 -0.0 -9.651699 34.836178 11.199233 -165.515307 -14.467457 -177.248258 -178.032321 67.103298 -179.140674 -5.162919 16.302679 0.177884 -5.762555 5.57569 1.158248 -0.214379 1.26625 3.889468 -90.225558 41.072425 75.796697 109.714259 -75.949969 59.647 -160.09819 -4.901163 142.968881 -159.937139 -4.458192 143.106699 -0.021291 -1.725169 -0.542387 -166.907591 -27.371663 174.618639 12.252484 41.424931 10.280249 13.896858 42.050345 5.850134 143.620413 38.233348 -148.080496 -94.002643 -84.675876 -68.341257 8.178887 -11.308713 7.923034 -11.613762 -31.857623 -4.45877 93.743665 37.963835 -53.548561 73.956069 -2.818913 -55.597619 -60.461659 -70.523647 -15.71111 -90.651148 -54.888664 -35.410732 160.889433 -7.337573 -143.345306 10.718066 36.764084 -11.311685 -0.004873 1.771387 -0.556475 3.34078 29.380309 -4.294391 -0.098846 0.258289 -0.091255 140.118061 -14.216142 135.330361 -180.0 75.749642 -0.0 -180.0 73.473292 -180.0 4.801803 -5.525369 128.008574 -153.434393 -60.326872 -29.091834 -180.0 75.749642 -0.0 -180.0 73.473292 -180.0 7.166984 -6.598021 101.486098 79.217502 69.217804 -6.421861
145.934 83.582 2.44288 0.0 -0.0 -0.0 -0.0 0.0 -0.0 -0.0 -0.0 0.0 2.348711 19.742543 -170.817555 5.72704 19.065302 169.446286 0.0 -0.0 -0.0 0.0 -0.0 -0.0 -143.620413 38.233348 148.080496 -153.748773 -14.787283 171.174154 -4.625952 40.004704 4.174796 2.283037 -7.197884 0.390594 51.059793 -41.203951 12.856726 -152.296487 -69.249598 148.117233 10.281995 -18.182542 -4.585706 -71.350735 44.552105 48.538186 -0.057679 0.167876 0.032027 0.071441 -0.209114 -0.037264 -145.099706 -1.521107 -178.650165 21.170884 6.497188 -7.922408 -126.797849 -26.619602 -124.512652 -22.09133 -41.691272 -25.199617 150.168677 21.535282 -155.275413 -23.236335 -10.328838 -10.835384 0.340649 2.958153 32.492589 -163.45687 -33.937277 -140.153659 179.373341 -16.877168 -89.359733 20.005812 -43.078306 1.643245 -60.461659 -70.523647 -15.71111 -4.938479 13.231547 -7.608576 36.036059 51.723116 -29.832321 40.069278 60.2871 -32.287882 0.000473 -0.060845 0.019116 73.361527 -86.900361 84.595762 150.032855 28.966435 145.934982 -26.860171 60.471764 -4.377567 -180.0 75.749642 -0.0 -180.0 73.473292 -180.0 4.999056 -5.893439 124.389772 -1.478562 -7.307217 59.15563 -180.0 75.749642 -0.0 -180.0 73.473292 -180.0 7.301688 -7.016974 97.665964 150.85104 16.947944 -89.8874
145.943 83.5738 2.4396 0.0 -0.0 -0.0 -0.0 0.0 -0.0 -0.0 -0.0 0.0 2.348711 19.742543 -170.817555 5.72704 19.065302 169.446286 0.0 -0.0 -0.0 0.0 -0.0 -0.0 -143.620413 38.233348 148.080496 -153.748773 -14.787283 171.174154 -4.625952 40.004704 4.174796 2.283037 -7.197884 0.390594 51.059793 -41.203951 12.856726 -152.296487 -69.249598 148.117233 10.281995 -18.182542 -4.585706 -71.350735 44.552105 48.538186 -0.057679 0.167876 0.032027 0.071441 -0.209114 -0.037264 -145.099706 -1.521107 -178.650165 21.170884 6.497188 -7.922408 -126.797849 -26.619602 -124.512652 -22.09133 -41.691272 -25.199617 150.168677 21.535282 -155.275413 -23.236335 -10.328838 -10.835384 0.340649 2.958153 32.492589 -163.45687 -33.937277 -140.153659 179.373341 -16.877168 -89.359733 20.005812 -43.078306 1.643245 -60.461659 -70.523647 -15.71111 -4.938479 13.231547 -7.608576 36.036059 51.723116 -29.832321 40.069278 60.2871 -32.287882 0.000473 -0.060845 0.019116 73.361527 -86.900361 84.595762 150.032855 28.966435 145.934982 -26.860171 60.471764 -4.377567 -180.0 75.749642 -0.0 -180.0 73.473292 -180.0 4.999056 -5.893439 124.389772 -1.478562 -7.307217 59.15563 -180.0 75.749642 -0.0 -180.0 73.473292 -180.0 7.301688 -7.016974 97.665964 150.85104 16.947944 -89.8874
